<?xml version="1.0" standalone="no"?>
<!DOCTYPE svg PUBLIC "-//W3C//DTD SVG 20010904//EN"
 "http://www.w3.org/TR/2001/REC-SVG-20010904/DTD/svg10.dtd">
<svg version="1.0" xmlns="http://www.w3.org/2000/svg"
 width="439.000000pt" height="439.000000pt" viewBox="0 0 439.000000 439.000000"
 preserveAspectRatio="xMidYMid meet">
<metadata>
Created by potrace 1.11, written by Peter Selinger 2001-2013
</metadata>
<g transform="translate(0.000000,439.000000) scale(0.100000,-0.100000)"
fill="#000000" stroke="none">
<path d="M2369 4115 c-2 -2 -41 -5 -86 -6 -186 -5 -390 -46 -584 -119 -113
-42 -275 -123 -345 -171 -23 -16 -47 -29 -53 -29 -6 0 -11 -4 -11 -8 0 -4 -13
-16 -30 -25 -16 -10 -35 -23 -42 -30 -7 -7 -29 -25 -48 -41 -65 -53 -185 -171
-240 -236 -30 -36 -58 -67 -61 -70 -7 -6 -80 -114 -94 -140 -6 -10 -16 -24
-21 -31 -26 -33 -104 -193 -148 -304 -50 -124 -88 -260 -106 -374 -6 -36 -13
-77 -16 -91 -3 -14 -7 -97 -9 -185 -5 -275 32 -484 132 -741 30 -76 65 -126
78 -112 2 2 -10 30 -27 63 -16 33 -32 67 -34 75 -2 8 -15 47 -30 85 -14 39
-27 77 -30 85 -2 8 -10 40 -18 70 -8 30 -17 69 -20 85 -3 17 -8 43 -12 58 -13
63 -15 89 -19 272 -2 105 0 210 5 235 4 25 10 63 13 85 49 358 240 737 507
1005 113 113 163 155 284 235 206 136 440 236 631 269 17 3 55 10 85 16 114
22 294 29 435 16 81 -7 102 -10 165 -21 19 -4 44 -8 56 -9 11 -1 25 -5 30 -9
6 -3 25 -9 42 -12 60 -10 208 -67 319 -121 353 -173 619 -436 800 -789 75
-147 159 -404 167 -514 1 -21 5 -42 8 -47 14 -27 18 -401 5 -495 -37 -266
-145 -556 -293 -781 -35 -53 -70 -103 -76 -110 -7 -7 -31 -36 -53 -63 -83
-104 -292 -291 -372 -333 -12 -7 -27 -18 -35 -24 -18 -18 -99 -62 -198 -110
-126 -59 -162 -74 -202 -84 -5 -1 -10 -3 -13 -4 -3 -1 -8 -3 -12 -4 -5 -1 -24
-7 -44 -14 -20 -7 -46 -15 -58 -17 -11 -3 -31 -7 -43 -10 -22 -6 -37 -8 -110
-20 -18 -3 -51 -9 -73 -12 -51 -9 -374 -8 -440 1 -321 44 -628 176 -885 382
-41 33 -164 157 -205 208 -22 27 -44 54 -50 60 -5 6 -32 37 -58 68 -78 93
-229 154 -350 141 -58 -6 -145 -48 -178 -84 -78 -88 -93 -214 -38 -326 47 -98
114 -142 207 -137 124 5 194 102 152 209 -20 53 -29 57 -56 26 -29 -35 -88
-60 -134 -57 -133 9 -182 162 -85 259 101 101 260 63 439 -102 39 -37 136
-172 136 -191 0 -5 3 -10 8 -10 4 0 16 -16 26 -35 11 -19 23 -35 28 -35 4 0 8
-5 8 -10 0 -9 40 -57 90 -109 70 -72 207 -160 300 -193 64 -23 89 -27 185 -32
45 -2 102 -15 158 -35 48 -17 87 -28 87 -26 0 2 12 0 28 -6 15 -6 34 -12 42
-14 24 -4 95 -18 100 -20 3 -1 34 -5 70 -9 36 -4 79 -10 95 -12 72 -10 298 -3
405 11 58 8 265 54 300 68 8 3 49 18 90 33 41 15 95 37 120 48 25 11 47 20 50
21 11 1 147 80 176 102 17 13 36 23 42 23 7 0 12 4 12 9 0 5 8 12 18 15 10 4
33 19 50 34 17 15 43 36 57 46 61 45 167 147 227 217 24 28 56 65 71 83 15 17
35 45 44 61 9 17 19 32 22 35 45 35 227 396 246 490 1 3 11 37 22 75 21 71 48
189 58 259 14 97 25 376 15 376 -3 0 -5 21 -6 48 0 43 -7 98 -20 177 -17 99
-74 288 -123 405 -103 245 -294 506 -490 670 -30 25 -59 50 -65 55 -22 21
-213 143 -276 177 -163 85 -375 158 -540 183 -25 4 -54 9 -64 11 -11 2 -60 6
-110 10 -50 3 -94 8 -97 10 -3 2 -8 2 -10 -1z"/>
<path d="M2125 3152 c-200 -34 -362 -156 -445 -334 -16 -34 -31 -74 -34 -88
-3 -14 -8 -36 -11 -50 -6 -29 -7 -166 -1 -195 24 -112 51 -160 74 -133 7 9 6
29 -5 68 -18 62 -26 257 -12 266 5 3 7 9 4 14 -5 8 9 48 41 117 14 30 74 115
98 138 164 156 408 195 600 98 257 -130 358 -426 235 -688 -135 -287 -497
-388 -758 -212 -64 44 -86 68 -71 77 7 4 23 7 36 5 13 -1 24 1 24 4 0 4 14 8
31 9 17 1 42 8 56 15 13 7 130 118 259 247 212 211 234 236 230 261 -9 56
-122 157 -155 140 -9 -5 -121 -114 -250 -243 -222 -221 -235 -236 -252 -290
-9 -32 -16 -58 -14 -58 2 0 -5 -27 -15 -60 -20 -65 -22 -60 37 -111 33 -29
153 -102 153 -92 0 3 6 1 13 -4 6 -6 26 -14 42 -18 17 -5 37 -10 45 -12 42
-11 185 -9 242 3 231 52 415 251 444 480 9 71 7 144 -7 198 -5 23 -12 50 -14
61 -21 92 -144 248 -240 307 -53 32 -139 65 -195 74 -50 8 -154 12 -185 6z
m270 -324 c25 -24 45 -49 45 -55 0 -12 -63 -83 -74 -83 -9 0 -106 97 -106 106
0 14 63 74 77 74 8 0 34 -19 58 -42z m-135 -82 c14 -12 38 -36 54 -53 l28 -31
-177 -177 -178 -177 -55 56 -56 55 174 176 c96 96 177 175 180 175 3 0 16 -11
30 -24z m-354 -402 c40 -42 45 -55 24 -59 -8 -2 -30 -6 -49 -10 -19 -3 -38 -8
-42 -11 -9 -5 -7 11 10 74 7 23 14 42 17 42 2 0 20 -16 40 -36z"/>
<path d="M1192 1670 c-37 -17 -62 -44 -62 -68 0 -6 6 -9 14 -8 16 2 46 31 46
44 0 11 24 22 50 22 17 0 29 -22 45 -77 6 -21 3 -23 -30 -23 -46 0 -81 -23
-94 -62 -16 -45 -14 -61 10 -87 18 -19 29 -22 65 -18 24 2 44 1 44 -4 0 -5 9
-9 21 -9 11 0 17 5 14 10 -3 6 -2 10 2 10 8 0 9 179 1 212 -7 27 -41 64 -65
70 -11 3 -39 -2 -61 -12z m86 -155 c14 -31 -6 -91 -34 -102 -25 -9 -49 11 -50
43 -2 72 59 114 84 59z"/>
<path d="M1413 1678 c-26 -13 -52 -63 -46 -89 3 -10 22 -29 42 -41 61 -38 70
-55 62 -121 -1 -5 -13 -7 -28 -5 -21 2 -29 9 -31 28 -2 14 -8 29 -12 34 -14
14 -39 -12 -35 -36 6 -31 35 -47 83 -48 37 0 45 4 62 32 17 28 17 34 4 59 -8
16 -26 36 -40 46 -14 10 -37 27 -50 38 l-25 20 23 34 c23 35 48 51 48 32 0 -5
4 -21 10 -36 9 -23 12 -24 31 -14 12 6 18 14 13 18 -5 3 -11 15 -12 26 -2 11
-9 23 -15 27 -17 11 -58 9 -84 -4z"/>
<path d="M1549 1673 c0 -10 -1 -75 -2 -146 -2 -123 -1 -127 19 -127 17 0 21 6
21 28 -1 45 22 97 52 120 35 26 38 19 36 -80 -1 -46 3 -69 12 -72 13 -5 26 9
29 34 7 57 6 79 -5 111 -15 45 -39 53 -88 28 -20 -10 -37 -19 -38 -19 0 0 0
31 1 70 0 61 -2 70 -18 70 -10 0 -18 -8 -19 -17z"/>
<path d="M1964 1675 c-8 -20 4 -35 27 -35 14 0 19 7 19 25 0 18 -5 25 -20 25
-11 0 -23 -7 -26 -15z"/>
<path d="M2129 1680 c-62 -17 -107 -71 -71 -85 9 -3 18 -2 20 4 9 28 46 61 68
61 19 0 29 -8 40 -35 19 -46 19 -76 -1 -69 -27 11 -80 -6 -97 -30 -23 -32 -30
-90 -13 -113 10 -13 27 -18 64 -18 28 0 51 -3 51 -7 0 -5 8 -8 19 -8 24 0 31
26 31 121 0 138 -38 198 -111 179z m65 -172 c10 -27 -5 -73 -29 -90 -21 -16
-53 -8 -59 15 -9 33 -8 39 14 75 25 41 60 41 74 0z"/>
<path d="M2292 1681 c-7 -4 -11 -18 -9 -31 2 -13 1 -39 -3 -59 -3 -20 -3 -47
0 -61 4 -14 3 -40 -1 -57 -4 -18 -3 -33 1 -33 5 0 7 -9 5 -19 -4 -22 21 -36
32 -18 4 6 6 26 5 43 -4 53 17 50 40 -5 22 -52 48 -68 48 -30 0 27 -17 60 -42
79 -18 15 -18 17 17 62 32 43 34 48 18 57 -15 7 -23 2 -43 -30 -13 -21 -27
-39 -31 -39 -4 0 -7 29 -7 65 1 68 -8 90 -30 76z"/>
<path d="M2449 1678 c0 -7 -1 -72 -2 -145 -2 -118 0 -132 16 -137 9 -2 18 1
18 7 6 65 13 86 34 119 45 68 66 47 61 -59 -3 -45 0 -63 10 -67 27 -10 35 39
26 150 -1 12 -13 26 -28 33 -22 10 -31 8 -60 -10 -19 -11 -34 -18 -35 -15 -1
3 -2 34 -3 68 -1 51 -4 63 -18 66 -10 2 -18 -2 -19 -10z"/>
<path d="M2888 1678 c-3 -7 -4 -28 -3 -45 1 -27 -4 -34 -28 -42 -16 -6 -26
-15 -22 -20 3 -6 12 -8 20 -5 17 7 36 -27 25 -46 -5 -8 -6 -19 -2 -24 3 -6 6
-22 7 -36 3 -61 54 -93 86 -53 13 15 11 16 -13 11 -31 -6 -30 -9 -34 85 -1 31
2 58 7 58 5 1 13 2 18 3 22 3 22 16 -1 25 -19 7 -25 17 -26 38 0 55 -2 63 -16
63 -8 0 -16 -6 -18 -12z"/>
<path d="M2987 1676 c-6 -15 11 -36 28 -36 17 0 34 21 28 36 -3 8 -15 14 -28
14 -13 0 -25 -6 -28 -14z"/>
<path d="M3340 1673 c-32 -13 -65 -47 -65 -67 0 -17 36 -15 42 2 11 31 36 52
60 52 18 0 28 -9 39 -35 25 -59 20 -70 -31 -70 -48 -1 -72 -21 -87 -74 -17
-58 28 -100 91 -86 20 4 31 3 31 -4 0 -6 8 -11 19 -11 23 0 31 35 31 135 0
134 -48 193 -130 158z m80 -152 c15 -30 12 -56 -11 -85 -24 -31 -54 -34 -69
-7 -14 28 -13 42 10 79 22 36 54 42 70 13z"/>
<path d="M2697 1663 c-33 -17 -57 -91 -53 -164 3 -43 9 -57 30 -76 35 -29 67
-29 103 1 32 27 36 42 36 134 0 51 -5 67 -23 86 -27 30 -60 37 -93 19z m64
-29 c18 -21 20 -134 3 -173 -31 -74 -81 -40 -79 54 2 111 37 166 76 119z"/>
<path d="M928 1638 c-8 -86 33 -148 98 -148 33 0 34 -1 29 -32 -8 -44 -36 -72
-64 -63 -14 4 -21 15 -21 31 0 32 -33 29 -38 -3 -6 -42 63 -67 110 -40 49 27
50 30 56 169 3 93 2 109 -12 114 -24 9 -26 5 -29 -63 -4 -90 -37 -120 -73 -66
-12 19 -17 45 -16 80 1 45 -2 53 -18 53 -14 0 -20 -9 -22 -32z"/>
<path d="M3077 1663 c-22 -21 8 -160 35 -163 4 0 15 -3 23 -6 8 -4 27 -4 40
-2 23 5 25 3 21 -29 -5 -45 -36 -78 -66 -68 -16 5 -20 13 -17 27 6 22 -19 36
-35 20 -8 -8 -8 -18 0 -36 20 -44 95 -44 139 -1 23 24 36 236 15 257 -22 22
-40 2 -33 -39 12 -63 -12 -120 -46 -109 -27 9 -43 47 -43 106 0 35 -4 50 -13
50 -8 0 -17 -3 -20 -7z"/>
<path d="M1970 1526 c0 -46 -3 -91 -6 -100 -9 -22 -30 -20 -48 5 -8 12 -19 18
-25 14 -29 -17 6 -54 52 -55 52 0 67 29 67 130 0 83 -1 90 -20 90 -18 0 -20
-7 -20 -84z"/>
<path d="M2995 1504 c2 -89 13 -129 32 -110 5 4 8 52 9 107 0 95 0 99 -21 99
-20 0 -21 -4 -20 -96z"/>
</g>
</svg>
